<svg width="24" height="24" viewBox="0 0 24 24" fill="none" xmlns="http://www.w3.org/2000/svg">
<path d="M12 0.625C9.75024 0.625 7.551 1.29213 5.68039 2.54203C3.80978 3.79193 2.35182 5.56847 1.49088 7.64698C0.629929 9.72548 0.404666 12.0126 0.843573 14.2192C1.28248 16.4257 2.36584 18.4525 3.95667 20.0433C5.54749 21.6342 7.57432 22.7175 9.78085 23.1564C11.9874 23.5953 14.2745 23.3701 16.353 22.5091C18.4315 21.6482 20.2081 20.1902 21.458 18.3196C22.7079 16.449 23.375 14.2498 23.375 12C23.3718 8.98414 22.1724 6.09271 20.0398 3.96018C17.9073 1.82764 15.0159 0.628185 12 0.625ZM16.1191 14.8809C16.2004 14.9622 16.2649 15.0587 16.3088 15.165C16.3528 15.2712 16.3755 15.385 16.3755 15.5C16.3755 15.615 16.3528 15.7288 16.3088 15.835C16.2649 15.9413 16.2004 16.0378 16.1191 16.1191C16.0378 16.2004 15.9413 16.2648 15.835 16.3088C15.7288 16.3528 15.615 16.3755 15.5 16.3755C15.385 16.3755 15.2712 16.3528 15.165 16.3088C15.0588 16.2648 14.9622 16.2004 14.8809 16.1191L12 13.237L9.11907 16.1191C9.03777 16.2004 8.94126 16.2648 8.83504 16.3088C8.72882 16.3528 8.61497 16.3755 8.5 16.3755C8.38503 16.3755 8.27119 16.3528 8.16497 16.3088C8.05875 16.2648 7.96224 16.2004 7.88094 16.1191C7.79964 16.0378 7.73516 15.9413 7.69116 15.835C7.64716 15.7288 7.62452 15.615 7.62452 15.5C7.62452 15.385 7.64716 15.2712 7.69116 15.165C7.73516 15.0587 7.79964 14.9622 7.88094 14.8809L10.763 12L7.88094 9.11906C7.71676 8.95488 7.62452 8.73219 7.62452 8.5C7.62452 8.26781 7.71676 8.04512 7.88094 7.88094C8.04513 7.71675 8.26781 7.62451 8.5 7.62451C8.7322 7.62451 8.95488 7.71675 9.11907 7.88094L12 10.763L14.8809 7.88094C14.9622 7.79964 15.0588 7.73515 15.165 7.69115C15.2712 7.64716 15.385 7.62451 15.5 7.62451C15.615 7.62451 15.7288 7.64716 15.835 7.69115C15.9413 7.73515 16.0378 7.79964 16.1191 7.88094C16.2004 7.96223 16.2649 8.05875 16.3088 8.16497C16.3528 8.27118 16.3755 8.38503 16.3755 8.5C16.3755 8.61497 16.3528 8.72882 16.3088 8.83503C16.2649 8.94125 16.2004 9.03777 16.1191 9.11906L13.237 12L16.1191 14.8809Z" fill="#C2CCD6"/>
</svg>
