<svg width="21" height="21" viewBox="0 0 21 21" fill="none" xmlns="http://www.w3.org/2000/svg">
<path fill-rule="evenodd" clip-rule="evenodd" d="M2.47407 0.670682C2.70372 0.441373 2.97949 0.26349 3.28309 0.148819C3.58669 0.0341479 3.9112 -0.0146916 4.2351 0.00553697C4.55901 0.0257655 4.87491 0.1146 5.16189 0.266154C5.44887 0.417707 5.70036 0.628519 5.8997 0.884619L8.25563 3.91124C8.68745 4.46643 8.8397 5.18962 8.66907 5.87212L7.95113 8.74649C7.91427 8.89538 7.91641 9.05126 7.95733 9.19909C7.99825 9.34691 8.07658 9.48169 8.18476 9.59043L11.4096 12.8152C11.5184 12.9236 11.6534 13.0021 11.8015 13.043C11.9496 13.084 12.1057 13.086 12.2548 13.0489L15.1279 12.3309C15.4647 12.2472 15.8162 12.2409 16.1558 12.3125C16.4954 12.3841 16.8144 12.5318 17.0888 12.7444L20.1154 15.099C21.2034 15.9456 21.3032 17.5534 20.3293 18.5259L18.9722 19.8831C18.0009 20.8543 16.5493 21.2809 15.1961 20.8044C11.732 19.5872 8.58709 17.6042 5.99551 15.0032C3.39462 12.412 1.41167 9.26752 0.194258 5.80387C-0.280867 4.45199 0.145695 2.99906 1.11695 2.02781L2.47407 0.670682Z" fill="white"/>
</svg>
